#!OML:ASF F:\VICON\USERDATA\INSTALL\rory3\rory3.ASF
:FULLY-SPECIFIED
:DEGREES
2882
root 8.47095 18.6554 10.2815 194.319 -24.0198 187.025
lowerback 18.3393 2.92795 -5.66352
upperback 7.2459 1.58701 -3.68135
thorax -2.55306 0.287039 -1.00015
lowerneck -7.69741 12.4417 0.191302
upperneck 8.80534 17.5554 -9.32278
head 4.76853 8.11282 -1.66506
rclavicle -4.13472e-014 6.99722e-014
rhumerus 1.48606 47.791 -72.0315
rradius 102.245
rwrist 21.8684
rhand -13.9737 -13.4493
rfingers 7.12502
rthumb 12.1545 316.924
lclavicle -4.13472e-014 6.99722e-014
lhumerus 16.5576 -22.098 57.3682
lradius 59.8181
lwrist 84.5831
lhand -25.4162 59.7316
lfingers 7.12502
lthumb 1.10964 89.7084
rfemur -24.7004 16.3229 12.7909
rtibia 29.0378
rfoot -16.5773 -2.70536
rtoes -7.23547
lfemur -39.3259 6.99973 -11.3804
ltibia 34.8857
lfoot -9.33325 10.3776
ltoes -3.40382
2883
root 8.49197 18.6604 10.2741 194.093 -24.0512 186.696
lowerback 18.2409 2.90743 -5.77479
upperback 7.22541 1.54069 -3.80424
thorax -2.52209 0.26246 -1.0564
lowerneck -7.684 12.4251 0.196479
upperneck 9.22451 17.5197 -8.95174
head 4.85922 8.09359 -1.55045
rclavicle -6.20208e-014 0
rhumerus -0.396178 47.9093 -72.095
rradius 103.485
rwrist 21.5928
rhand -14.1989 -13.5639
rfingers 7.12502
rthumb 11.9373 316.796
lclavicle -6.20208e-014 0
lhumerus 15.4505 -23.1457 57.7635
lradius 61.3087
lwrist 84.9276
lhand -25.6398 59.6254
lfingers 7.12502
lthumb 0.893681 89.6033
rfemur -24.211 16.7126 12.8142
rtibia 29.2416
rfoot -16.6755 -1.76476
rtoes -7.32068
lfemur -38.8036 6.78466 -11.5363
ltibia 34.6983
lfoot -9.42142 10.3719
ltoes -2.73909
2884
root 8.51933 18.6587 10.2715 193.89 -24.152 186.592
lowerback 18.0161 2.8654 -5.74227
upperback 7.22233 1.52203 -3.8057
thorax -2.40715 0.255893 -1.06616
lowerneck -7.62895 12.4002 0.14393
upperneck 9.49815 17.4843 -8.76461
head 4.91101 8.07017 -1.48796
rclavicle 6.83819e-014 8.11041e-014
rhumerus -2.17376 48.0209 -72.0033
rradius 104.695
rwrist 21.2907
rhand -14.304 -13.2555
rfingers 7.12502
rthumb 11.8359 317.099
lclavicle 6.83819e-014 8.11041e-014
lhumerus 14.4211 -24.0299 58.3608
lradius 62.7179
lwrist 85.2355
lhand -25.5791 59.3239
lfingers 7.12502
lthumb 0.952288 89.3015
rfemur -23.8255 17.2736 13.021
rtibia 29.3336
rfoot -16.7506 -1.1113
rtoes -7.84163
lfemur -38.4971 6.58082 -11.4536
ltibia 34.5566
lfoot -9.39638 10.3846
ltoes -2.46319
2885
root 8.54763 18.6553 10.2669 193.748 -24.3758 186.526
lowerback 17.6919 2.78637 -5.65443
upperback 7.19267 1.48529 -3.77643
thorax -2.26756 0.245954 -1.06848
lowerneck -7.5915 12.3497 0.00855373
upperneck 9.82209 17.4078 -8.41177
head 4.95702 8.03109 -1.36773
rclavicle 0 -9.70069e-014
rhumerus -4.02745 48.0558 -71.9281
rradius 105.911
rwrist 20.8808
rhand -14.3292 -13.0902
rfingers 7.12502
rthumb 11.8116 317.263
lclavicle 0 -9.70069e-014
lhumerus 13.3024 -24.8991 59.1245
lradius 64.1753
lwrist 85.5207
lhand -25.841 59.5578
lfingers 7.12502
lthumb 0.69933 89.5364
rfemur -23.4732 17.8398 13.255
rtibia 29.3293
rfoot -16.8164 -0.658942
rtoes -8.20435
lfemur -38.3284 6.36101 -11.3469
ltibia 34.435
lfoot -9.28491 10.3409
ltoes -2.61125
2886
root 8.57656 18.6533 10.2594 193.501 -24.7116 186.539
lowerback 17.4768 2.60458 -5.43085
upperback 7.15058 1.32158 -3.7906
thorax -2.19147 0.17672 -1.17159
lowerneck -7.65498 12.3233 -0.0991885
upperneck 10.1708 17.3537 -7.95005
head 5.02085 8.00782 -1.21048
rclavicle 9.54166e-015 -3.65764e-014
rhumerus -5.94644 48.2311 -72.066
rradius 107.05
rwrist 20.5442
rhand -14.5113 -12.9444
rfingers 7.12502
rthumb 11.6361 317.399
lclavicle 9.54166e-015 -3.65764e-014
lhumerus 11.9883 -25.7459 59.7423
lradius 65.6847
lwrist 85.8753
lhand -26.3465 60.3919
lfingers 7.12502
lthumb 0.21111 -90.3716
rfemur -22.9926 18.3097 13.6174
rtibia 29.2263
rfoot -16.9108 -0.485825
rtoes -7.6724
lfemur -38.0931 6.15477 -11.1638
ltibia 34.3032
lfoot -9.20293 10.1548
ltoes -2.92055
2887
root 8.60613 18.6503 10.2547 193.254 -24.9908 186.558
lowerback 17.2408 2.44022 -5.1872
upperback 7.11125 1.18313 -3.8154
thorax -2.10215 0.119798 -1.30256
lowerneck -7.82757 12.2453 -0.275906
upperneck 10.6835 17.2371 -7.3843
head 5.13653 7.9461 -1.0064
rclavicle 3.18055e-015 -8.74653e-014
rhumerus -8.07601 48.4628 -72.3469
rradius 108.183
rwrist 20.3189
rhand -15.0442 -13.2782
rfingers 7.12502
rthumb 11.1221 317.036
lclavicle 3.18055e-015 -8.74653e-014
lhumerus 10.7133 -26.5697 60.3932
lradius 67.1014
lwrist 86.2407
lhand -26.7835 61.3398
lfingers 7.12502
lthumb -0.210992 -91.3194
rfemur -22.5568 18.7487 13.9483
rtibia 29.0459
rfoot -16.9615 -0.763077
rtoes -5.48552
lfemur -37.8214 5.97947 -10.9725
ltibia 34.1084
lfoot -9.06728 10.0059
ltoes -2.76341
